<svg width="274" height="188" viewBox="0 0 274 188" fill="none" xmlns="http://www.w3.org/2000/svg">
<path d="M137 30C190.572 30 234 68.7274 234 116.5C234 116.667 233.997 116.833 233.996 117H234V125H254.223C257.965 125 261 128.035 261 131.777C261 150.678 245.678 166 226.777 166H46.2236C27.3229 166 12.0003 150.678 12 131.777C12 128.035 15.0346 125 18.7773 125H40V117H40.0039C40.0028 116.833 40 116.667 40 116.5C40 68.7274 83.4284 30 137 30Z" fill="#050114"/>
<path d="M232.643 102C233.535 106.715 234 111.559 234 116.5C234 116.667 233.997 116.833 233.996 117H234V125H40V117H40.0039C40.0028 116.833 40 116.667 40 116.5C40 111.559 40.4651 106.715 41.3574 102H232.643Z" fill="#FFAD01"/>
</svg>
